<svg id="레이어_1" data-name="레이어 1" xmlns="http://www.w3.org/2000/svg" viewBox="0 0 1080 1080"><defs><style>.cls-1{fill:none;}</style></defs><path class="cls-1" d="M534.51,410.12,186.8,429.35c-12.83,1-17.11,7.1-17.11,20.26V751.29c0,16.22,8.55,22.28,27.81,21.28l332.73-18.23c19.27-1,21.41-12.16,21.41-25.33V429.35C551.64,416.2,546.3,409.11,534.51,410.12Zm-46,74.93-16,3V710.8c-13.92,7.08-26.76,11.13-37.45,11.13-17.13,0-21.41-5.06-34.24-20.24L295.92,545.78V696.63l33.19,7.09s0,18.21-26.78,18.21L228.53,726c-2.14-4.06,0-14.17,7.49-16.2l19.26-5V505.29l-26.75-2c-2.14-9.12,3.2-22.27,18.19-23.29l79.18-5.05L435,632.85V493.14l-27.83-3c-2.13-11.15,6.42-19.24,17.12-20.25l73.84-4.07C500.29,474.91,498.16,484,488.51,485.05Z"/><path class="cls-1" d="M207.14,392.91,509.9,375.7c6.42,0,1.08-6.07-1.06-7.08L458.56,334.2c-9.63-7.09-22.47-15.2-47.07-13.17L118.33,341.28c-10.69,1-12.83,6.07-8.57,10.12l41.75,31.39C168.61,396,175,394.94,207.14,392.91Z"/><path class="cls-1" d="M639.12,366.42,936.88,349.2c6.42,0,1.08-6.06-1.06-7.07L887.54,309.7c-9.63-7.08-24.47-15.19-49.07-13.16L550.31,316.79c-10.69,1-12.83,6.06-8.57,10.12l41.75,29.39C600.59,369.45,607,368.45,639.12,366.42Z"/><path class="cls-1" d="M966.49,385.63,625.78,404.86c-12.83,1-17.11,7.1-17.11,20.26V726.8c0,16.22,8.55,22.28,27.81,21.28l325.73-18.23c19.27-1,21.41-12.16,21.41-25.33V404.86C983.62,391.71,978.28,384.62,966.49,385.63Zm-83.12,119.6c-4.53,0-5.18-1.31-5.82-3.93l-2.18-20.4c-1-4.24-4.83-3.93-10.62-3.93l-37,2.18a3.4,3.4,0,0,0-3.12,3.41V664c7.37,5,28.57,10.29,33.32,12,2,2.08-7,16-15,16.08l-113.6,7.17c-1.55-3.69.89-13.77,4.54-15L758.62,676l1.06-186.7a4.66,4.66,0,0,0-4.78-4.63L716.7,487c-5.82,0-5.65.62-6.62,4.87l-3.42,18.94c-.65,3.27-7.1,2.88-10.33,2.88-7.12,0-19.2-.59-18.55-5.5,1.62-11.46.84-36.24,2.45-48.68,1-6.88,10.08-7.86,16.87-7.86L884.75,440.7c6.76,0,18.36,1,19.33,7.86,1.62,12.44-.09,36.7,1.2,48.81C905.93,503.59,893.73,505.23,883.37,505.23Z"/><path d="M998.58,348.17l-97.33-64.79c-23.54-16.2-33.17-18.23-70.62-15.19L512,286.2c-23.87,2-29.69,12.85-30,30.15l-12.74-8.48c-23.54-16.2-33.18-18.23-70.62-15.19L93.71,314c-24.59,2-33.15,17.2-33.15,35.42V665.23c0,14.19,5.34,26.32,18.18,42.54l71.68,88.07c11.78,14.19,22.48,17.22,45,16.21L549.5,791.79c19.77-1.33,30.22-7.52,35-18,11,12.08,21.7,14.7,42.82,13.74L981.48,767.3c29.95-2,38.52-15.18,38.52-37.45V374.49C1020,362.34,1014.65,359.31,998.58,348.17ZM151.51,382.79,109.76,351.4c-4.26-4-2.12-9.12,8.57-10.12L411.49,321c24.6-2,37.44,6.08,47.07,13.17l50.28,34.42c2.14,1,7.48,7.08,1.06,7.08L207.14,392.91C175,394.94,168.61,396,151.51,382.79ZM551.64,729c0,13.17-2.14,24.32-21.41,25.33L197.5,772.57c-19.26,1-27.81-5.06-27.81-21.28V449.61c0-13.16,4.28-19.24,17.11-20.26l347.71-19.23c11.79-1,17.13,6.08,17.13,19.23ZM583.49,356.3l-41.75-29.39c-4.26-4.06-2.12-9.12,8.57-10.12l288.16-20.25c24.6-2,39.44,6.08,49.07,13.16l48.28,32.43c2.14,1,7.48,7.07,1.06,7.07L639.12,366.42C607,368.45,600.59,369.45,583.49,356.3ZM983.62,704.52c0,13.17-2.14,24.32-21.41,25.33L636.48,748.08c-19.26,1-27.81-5.06-27.81-21.28V425.12c0-13.16,4.28-19.24,17.11-20.26l340.71-19.23c11.79-1,17.13,6.08,17.13,19.23Z"/><path d="M424.32,469.86c-10.7,1-19.25,9.1-17.12,20.25l27.83,3V632.85L325.9,474.92,246.72,480c-15,1-20.33,14.17-18.19,23.29l26.75,2V704.74l-19.26,5c-7.49,2-9.63,12.14-7.49,16.2l73.8-4.06c26.78,0,26.78-18.21,26.78-18.21l-33.19-7.09V545.78L400.79,701.69c12.83,15.18,17.11,20.24,34.24,20.24,10.69,0,23.53-4,37.45-11.13V488.07l16-3c9.65-1,11.78-10.14,9.65-19.26Z"/><path d="M904.08,448.56c-1-6.88-12.57-7.86-19.33-7.86L697.1,451.63c-6.79,0-15.9,1-16.87,7.86-1.61,12.44-.83,37.22-2.45,48.68-.65,4.91,11.43,5.5,18.55,5.5,3.23,0,9.68.39,10.33-2.88l3.42-18.94c1-4.25.8-4.87,6.62-4.87l38.2-2.3a4.66,4.66,0,0,1,4.78,4.63L758.62,676l-24.68,8.16c-3.65,1.23-6.09,11.31-4.54,15L843,692c8-.07,17-14,15-16.08-4.75-1.67-26-6.92-33.32-12V482.56a3.4,3.4,0,0,1,3.12-3.41l37-2.18c5.79,0,9.66-.31,10.62,3.93l2.18,20.4c.64,2.62,1.29,3.93,5.82,3.93,10.36,0,22.56-1.64,21.91-7.86C904,485.26,905.7,461,904.08,448.56Z"/></svg>